<svg width="232" height="54" viewBox="0 6 232 54" fill="none" xmlns="http://www.w3.org/2000/svg">
<path d="M61.27 18.755C59.1828 17.6318 56.7666 17.0688 54.0242 17.0688C51.2818 17.0688 48.7467 17.6595 46.5461 18.8437C44.3428 20.0279 42.6233 21.7223 41.3848 23.9325C40.1463 26.1428 39.5298 28.7801 39.5298 31.8417V33.2366C39.5298 36.2622 40.1269 38.8607 41.3267 41.0293C42.5238 43.2007 44.2239 44.8674 46.43 46.0322C48.6334 47.1942 51.2044 47.7765 54.1403 47.7765C57.7729 47.7765 60.7502 46.9335 63.0697 45.2474C65.3891 43.5613 66.8184 41.2817 67.3602 38.4142H60.6341C60.2858 39.5789 59.5698 40.5579 58.4889 41.351C57.4052 42.1469 55.9759 42.5435 54.1983 42.5435C51.9563 42.5435 50.1207 41.7864 48.6914 40.275C47.2621 38.7636 46.5461 36.6504 46.5461 33.9355V33.819H67.8827V31.6088C67.8827 28.5083 67.3022 25.871 66.1438 23.6996C64.9855 21.5282 63.36 19.8809 61.2727 18.755H61.27ZM53.7919 22.2436C55.9566 22.2436 57.6844 22.912 58.981 24.2514C60.1172 25.4245 60.753 27.0247 60.894 29.0491H46.5904C46.7535 27.069 47.3921 25.4855 48.5145 24.3097C49.8276 22.9342 51.5859 22.2464 53.7919 22.2464V22.2436Z" fill="#1C403B"/>
<path d="M110.987 18.231C109.423 17.4545 107.692 17.0663 105.798 17.0663C103.402 17.0663 101.325 17.6874 99.5672 18.9271C98.2734 19.8395 97.2395 21.0042 96.4599 22.4185C96.3631 22.2078 96.2581 22.0026 96.1475 21.8057C95.238 20.1972 94.0216 19.0047 92.4956 18.2282C90.9668 17.4517 89.297 17.0635 87.4807 17.0635C85.2 17.0635 83.2095 17.6653 81.5094 18.8661C80.2626 19.7452 79.2784 20.9099 78.5513 22.352V17.7623H71.8833V47.0751H78.8997V30.3249C78.8997 27.9982 79.4691 26.1374 80.6109 24.7425C81.7499 23.3476 83.287 22.6487 85.2194 22.6487C86.8808 22.6487 88.1774 23.2117 89.1035 24.3348C90.0296 25.4607 90.4941 26.9721 90.4941 28.8718V47.0751H97.5104V30.3249C97.5104 27.9982 98.0799 26.1374 99.2217 24.7425C100.361 23.3476 101.898 22.6487 103.83 22.6487C105.492 22.6487 106.788 23.2117 107.714 24.3348C108.643 25.4607 109.105 26.9721 109.105 28.8718V47.0751H116.121V27.94C116.121 25.458 115.657 23.4141 114.731 21.8057C113.805 20.1972 112.558 19.0047 110.99 18.2282L110.987 18.231Z" fill="#1C403B"/>
<path d="M128.987 6.25098H121.219V13.2311H128.987V6.25098Z" fill="#1C403B"/>
<path d="M128.641 17.7681H121.625V47.0808H128.641V17.7681Z" fill="#1C403B"/>
<path d="M172.006 18.0566C169.222 22.71 166.941 26.6923 165.164 30.0091C163.386 33.323 161.802 36.515 160.411 39.5766C159.745 41.0326 159.223 42.2001 158.844 43.0875L156.005 18.0566H144.543C145.815 14.2406 147.993 11.5645 151.59 11.5645C152.945 11.5645 154.683 12.1385 155.61 12.5684L154.877 7.20501C154.095 6.70584 153.036 6.58936 151.662 6.56163C148.671 6.49785 145.605 7.63486 143.468 9.63434C141.143 11.7004 139.603 14.6733 138.641 18.0538H135.307L134.146 23.6362H137.565L132.581 47.0754H137.856L142.84 23.6362H149.915L150.78 19.6622L154.551 46.26H157.105C156.306 47.7104 155.61 48.8585 155.015 49.6905C154.241 50.7748 153.497 51.5208 152.784 51.9285C152.068 52.3361 151.228 52.5386 150.26 52.5386C149.486 52.5386 148.812 52.375 148.231 52.0449C147.65 51.7149 147.236 51.249 146.984 50.65C146.733 50.0482 146.705 49.3799 146.896 48.645L143.88 50.3893C143.57 51.8231 143.6 53.1043 143.968 54.2275C144.336 55.3506 144.974 56.2242 145.881 56.8454C146.791 57.4666 147.883 57.7772 149.157 57.7772C150.548 57.7772 151.814 57.4582 152.956 56.8176C154.095 56.177 155.198 55.2286 156.259 53.9695C157.324 52.7077 158.471 51.0521 159.709 48.9972C159.942 48.5701 160.124 48.2595 160.259 48.0654C160.395 47.8713 160.577 47.5607 160.81 47.1364L177.275 18.0566H171.998H172.006Z" fill="#D8FE6A"/>
<path d="M20.1065 7.5293H12.916V41.0906H16.5099V47.078H39.2398V41.0906H20.1065V7.5293Z" fill="#1C403B"/>
</svg>
